<svg width="20" height="20" viewBox="0 0 20 20" fill="none" xmlns="http://www.w3.org/2000/svg">
<path d="M17.9167 12.5001C17.9148 11.9998 17.7629 11.5117 17.4807 11.0987C17.1984 10.6857 16.7987 10.3668 16.3333 10.1834L17.8917 4.35009C17.9242 4.22586 17.9276 4.09578 17.9016 3.97002C17.8756 3.84425 17.8208 3.72621 17.7417 3.62509C17.6607 3.53034 17.5596 3.45496 17.4456 3.40448C17.3317 3.35401 17.2079 3.32972 17.0833 3.33342H5.66666L5.39166 2.28342C5.34384 2.10585 5.23864 1.94908 5.09243 1.83754C4.94622 1.72599 4.76722 1.66595 4.58332 1.66676H2.91666V3.33342H3.94166L6.00832 11.0501C6.05716 11.2319 6.16611 11.3918 6.31743 11.5038C6.46875 11.6158 6.65352 11.6732 6.84166 11.6668H15.4167C15.6377 11.6668 15.8496 11.7546 16.0059 11.9108C16.1622 12.0671 16.25 12.2791 16.25 12.5001C16.25 12.7211 16.1622 12.9331 16.0059 13.0893C15.8496 13.2456 15.6377 13.3334 15.4167 13.3334H4.58332C4.36231 13.3334 4.15035 13.4212 3.99407 13.5775C3.83779 13.7338 3.74999 13.9457 3.74999 14.1668C3.74999 14.3878 3.83779 14.5997 3.99407 14.756C4.15035 14.9123 4.36231 15.0001 4.58332 15.0001H5.56666C5.4296 15.3777 5.38556 15.7828 5.43827 16.181C5.49097 16.5793 5.63886 16.9589 5.86942 17.2879C6.09998 17.6168 6.40642 17.8854 6.76278 18.0708C7.11915 18.2562 7.51495 18.353 7.91666 18.353C8.31837 18.353 8.71417 18.2562 9.07053 18.0708C9.42689 17.8854 9.73333 17.6168 9.96389 17.2879C10.1945 16.9589 10.3423 16.5793 10.395 16.181C10.4478 15.7828 10.4037 15.3777 10.2667 15.0001H12.2333C12.1086 15.3439 12.0608 15.711 12.0933 16.0753C12.1259 16.4396 12.238 16.7923 12.4217 17.1086C12.6054 17.4249 12.8563 17.697 13.1567 17.9057C13.4571 18.1145 13.7996 18.2548 14.16 18.3167C14.5205 18.3787 14.8902 18.3607 15.243 18.2642C15.5959 18.1677 15.9232 17.995 16.202 17.7581C16.4807 17.5213 16.7041 17.2262 16.8564 16.8937C17.0087 16.5611 17.0862 16.1992 17.0833 15.8334C17.0818 15.4029 16.9668 14.9804 16.75 14.6084C17.1063 14.3838 17.4001 14.0727 17.6041 13.7041C17.8081 13.3355 17.9156 12.9213 17.9167 12.5001ZM14.6583 10.0001H7.49999L6.11666 5.00009H16L14.6583 10.0001ZM7.91666 16.6668C7.75184 16.6668 7.59072 16.6179 7.45368 16.5263C7.31664 16.4347 7.20983 16.3046 7.14676 16.1523C7.08368 16.0001 7.06718 15.8325 7.09934 15.6708C7.13149 15.5092 7.21086 15.3607 7.3274 15.2442C7.44394 15.1276 7.59243 15.0483 7.75408 15.0161C7.91573 14.9839 8.08329 15.0004 8.23556 15.0635C8.38783 15.1266 8.51798 15.2334 8.60955 15.3704C8.70112 15.5075 8.74999 15.6686 8.74999 15.8334C8.74999 16.0544 8.66219 16.2664 8.50591 16.4227C8.34963 16.579 8.13767 16.6668 7.91666 16.6668ZM14.5833 16.6668C14.4185 16.6668 14.2574 16.6179 14.1203 16.5263C13.9833 16.4347 13.8765 16.3046 13.8134 16.1523C13.7504 16.0001 13.7338 15.8325 13.766 15.6708C13.7982 15.5092 13.8775 15.3607 13.9941 15.2442C14.1106 15.1276 14.2591 15.0483 14.4207 15.0161C14.5824 14.9839 14.75 15.0004 14.9022 15.0635C15.0545 15.1266 15.1846 15.2334 15.2762 15.3704C15.3678 15.5075 15.4167 15.6686 15.4167 15.8334C15.4167 16.0544 15.3289 16.2664 15.1726 16.4227C15.0163 16.579 14.8043 16.6668 14.5833 16.6668Z" fill="#0E0E2C"/>
</svg>
